<svg xmlns="http://www.w3.org/2000/svg" version="1.1" xmlns:xlink="http://www.w3.org/1999/xlink" xmlns:svgjs="http://svgjs.com/svgjs" width="1920" height="1080" preserveAspectRatio="none" viewBox="0 0 1920 1080"><g mask="url(&quot;#SvgjsMask1140&quot;)" fill="none"><rect width="1920" height="1080" x="0" y="0" fill="#0e2a47"></rect><path d="M -1252.9295813503722,164 C -1060.93,259 -676.93,639 -292.9295813503722,639 C 91.07,639 283.07,112.6 667.0704186496278,164 C 1051.07,215.4 1376.48,850.2 1627.0704186496278,896 C 1877.66,941.8 1861.41,493.6 1920,393" stroke="rgba(51, 121, 194, 0.58)" stroke-width="2"></path><path d="M -1184.5060477559,308 C -992.51,361.4 -608.51,532 -224.50604775589994,575 C 159.49,618 351.49,505 735.4939522441,523 C 1119.49,541 1458.59,715.8 1695.4939522441,665 C 1932.4,614.2 1875.1,348.2 1920,269" stroke="rgba(51, 121, 194, 0.58)" stroke-width="2"></path><path d="M -649.0572161462347,908 C -457.06,824.6 -73.06,508.4 310.94278385376526,491 C 694.94,473.6 886.94,874 1270.9427838537654,821 C 1654.94,768 2101.13,268 2230.9427838537654,226 C 2360.75,184 1982.19,534 1920,611" stroke="rgba(51, 121, 194, 0.58)" stroke-width="2"></path><path d="M -1622.5039739714475,448 C -1430.5,542.8 -1046.5,936.4 -662.5039739714474,922 C -278.5,907.6 -86.5,443.4 297.4960260285526,376 C 681.5,308.6 933,596.2 1257.4960260285525,585 C 1582,573.8 1787.5,373 1920,320" stroke="rgba(51, 121, 194, 0.58)" stroke-width="2"></path><path d="M -1332.6256700146068,913 C -1140.63,791.8 -756.63,378.6 -372.62567001460684,307 C 11.37,235.4 203.37,514.6 587.3743299853932,555 C 971.37,595.4 1280.85,508.8 1547.3743299853932,509 C 1813.9,509.2 1845.47,546.6 1920,556" stroke="rgba(51, 121, 194, 0.58)" stroke-width="2"></path><path d="M -1122.3682115328438,725 C -930.37,599.4 -546.37,131.6 -162.36821153284376,97 C 221.63,62.4 413.63,557.8 797.6317884671562,552 C 1181.63,546.2 1533.16,41.2 1757.6317884671562,68 C 1982.11,94.8 1887.53,562.4 1920,686" stroke="rgba(51, 121, 194, 0.58)" stroke-width="2"></path><path d="M -1691.412351754183,115 C -1499.41,250.8 -1115.41,726.4 -731.412351754183,794 C -347.41,861.6 -155.41,421.2 228.58764824581704,453 C 612.59,484.8 850.31,1017 1188.587648245817,953 C 1526.87,889 1773.72,297 1920,133" stroke="rgba(51, 121, 194, 0.58)" stroke-width="2"></path><path d="M -1381.0329392344324,692 C -1189.03,608.2 -805.03,220.4 -421.03293923443243,273 C -37.03,325.6 154.97,933.8 538.9670607655676,955 C 922.97,976.2 1222.76,414.4 1498.9670607655676,379 C 1775.17,343.6 1835.79,698.2 1920,778" stroke="rgba(51, 121, 194, 0.58)" stroke-width="2"></path></g><defs><mask id="SvgjsMask1140"><rect width="1920" height="1080" fill="#ffffff"></rect></mask></defs></svg>